<?xml version="1.0" encoding="utf-8" standalone="no"?>
<!DOCTYPE svg PUBLIC "-//W3C//DTD SVG 1.1//EN"
  "http://www.w3.org/Graphics/SVG/1.1/DTD/svg11.dtd">
<!-- Created with matplotlib (http://matplotlib.org/) -->
<svg height="648pt" version="1.1" viewBox="0 0 864 648" width="864pt" xmlns="http://www.w3.org/2000/svg" xmlns:xlink="http://www.w3.org/1999/xlink">
 <defs>
  <style type="text/css">
*{stroke-linecap:butt;stroke-linejoin:round;}
  </style>
 </defs>
 <g id="figure_1">
  <g id="patch_1">
   <path d="
M0 648
L864 648
L864 0
L0 0
z
" style="fill:#ffffff;"/>
  </g>
  <g id="axes_1">
   <g id="patch_2">
    <path d="
M108 567
L777.6 567
L777.6 64.8
L108 64.8
z
" style="fill:#eeeeee;"/>
   </g>
   <g id="matplotlib.axis_1">
    <g id="xtick_1">
     <g id="line2d_1">
      <path clip-path="url(#p82c8045bb0)" d="
M108 567
L108 64.8" style="fill:none;stroke:#000000;stroke-dasharray:1.000000,3.000000;stroke-dashoffset:0.0;stroke-width:0.5;"/>
     </g>
     <g id="line2d_2">
      <defs>
       <path d="
M0 0
L0 0" id="m8bc147ca23" style="stroke:#555555;stroke-width:0.5;"/>
      </defs>
      <g>
       <use style="fill:#555555;stroke:#555555;stroke-width:0.5;" x="108.0" xlink:href="#m8bc147ca23" y="567.0"/>
      </g>
     </g>
     <g id="line2d_3">
      <g>
       <use style="fill:#555555;stroke:#555555;stroke-width:0.5;" x="108.0" xlink:href="#m8bc147ca23" y="64.8"/>
      </g>
     </g>
     <g id="text_1">
      <!-- 0.0 -->
      <defs>
       <path d="
M29.6875 11.1875
Q32.2812 11.1875 34.0312 9.42188
Q35.7969 7.67188 35.7969 5.07812
Q35.7969 2.4375 34.0156 0.5625
Q32.2344 -1.3125 29.6875 -1.3125
Q27.2031 -1.3125 25.4375 0.5625
Q23.6875 2.4375 23.6875 5.07812
Q23.6875 7.71875 25.4219 9.45312
Q27.1562 11.1875 29.6875 11.1875" id="AndaleMono-2e"/>
       <path d="
M29.8906 70.2188
Q40.8281 70.2188 46.7031 60.8125
Q52.5938 51.4219 52.5938 34.4219
Q52.5938 17.9688 46.875 8.32812
Q41.1562 -1.3125 29.8906 -1.3125
Q19 -1.3125 13.0781 8.0625
Q7.17188 17.4375 7.17188 34.4219
Q7.17188 50.9219 12.9062 60.5625
Q18.6562 70.2188 29.8906 70.2188
M29.8906 5.71875
Q37.1094 5.71875 40.5938 12.5781
Q44.0938 19.4375 44.0938 34.4219
Q44.0938 49.4688 40.5938 56.2812
Q37.1094 63.0938 29.8906 63.0938
Q22.75 63.0938 19.2344 56.1094
Q15.7188 49.125 15.7188 34.4219
Q15.7188 19.5312 19.2031 12.625
Q22.7031 5.71875 29.8906 5.71875
M29.6875 41.75
Q32.7656 41.75 34.8906 39.625
Q37.0156 37.5 37.0156 34.4219
Q37.0156 31.25 34.8594 28.9688
Q32.7188 26.7031 29.6875 26.7031
Q26.7031 26.7031 24.5781 28.9688
Q22.4688 31.25 22.4688 34.4219
Q22.4688 37.5469 24.5312 39.6406
Q26.6094 41.75 29.6875 41.75" id="AndaleMono-30"/>
      </defs>
      <g style="fill:#555555;" transform="translate(99.72734375 579.8890625)scale(0.1 -0.1)">
       <use xlink:href="#AndaleMono-30"/>
       <use x="60.009765625" xlink:href="#AndaleMono-2e"/>
       <use x="120.01953125" xlink:href="#AndaleMono-30"/>
      </g>
     </g>
    </g>
    <g id="xtick_2">
     <g id="line2d_4">
      <path clip-path="url(#p82c8045bb0)" d="
M241.92 567
L241.92 64.8" style="fill:none;stroke:#000000;stroke-dasharray:1.000000,3.000000;stroke-dashoffset:0.0;stroke-width:0.5;"/>
     </g>
     <g id="line2d_5">
      <g>
       <use style="fill:#555555;stroke:#555555;stroke-width:0.5;" x="241.92" xlink:href="#m8bc147ca23" y="567.0"/>
      </g>
     </g>
     <g id="line2d_6">
      <g>
       <use style="fill:#555555;stroke:#555555;stroke-width:0.5;" x="241.92" xlink:href="#m8bc147ca23" y="64.8"/>
      </g>
     </g>
     <g id="text_2">
      <!-- 0.2 -->
      <defs>
       <path d="
M47.9062 0
L10.0156 0
L10.0156 5.8125
Q24.4219 21.875 28.7188 27.3438
Q33.0156 32.8125 35.6875 38.8125
Q38.375 44.8281 38.375 50.7812
Q38.375 56.5469 34.875 59.8594
Q31.3906 63.1875 25.0938 63.1875
Q20.2656 63.1875 12.1094 60.2031
L10.9844 67.0938
Q18.3594 70.2188 26.4219 70.2188
Q35.6406 70.2188 41.2812 65.0156
Q46.9219 59.8125 46.9219 51.125
Q46.9219 44.9219 44.0156 38.8125
Q41.1094 32.7188 36.5625 27.0938
Q32.0312 21.4844 18.8906 6.98438
L47.9062 6.98438
z
" id="AndaleMono-32"/>
      </defs>
      <g style="fill:#555555;" transform="translate(233.88171875 579.8890625)scale(0.1 -0.1)">
       <use xlink:href="#AndaleMono-30"/>
       <use x="60.009765625" xlink:href="#AndaleMono-2e"/>
       <use x="120.01953125" xlink:href="#AndaleMono-32"/>
      </g>
     </g>
    </g>
    <g id="xtick_3">
     <g id="line2d_7">
      <path clip-path="url(#p82c8045bb0)" d="
M375.84 567
L375.84 64.8" style="fill:none;stroke:#000000;stroke-dasharray:1.000000,3.000000;stroke-dashoffset:0.0;stroke-width:0.5;"/>
     </g>
     <g id="line2d_8">
      <g>
       <use style="fill:#555555;stroke:#555555;stroke-width:0.5;" x="375.84" xlink:href="#m8bc147ca23" y="567.0"/>
      </g>
     </g>
     <g id="line2d_9">
      <g>
       <use style="fill:#555555;stroke:#555555;stroke-width:0.5;" x="375.84" xlink:href="#m8bc147ca23" y="64.8"/>
      </g>
     </g>
     <g id="text_3">
      <!-- 0.4 -->
      <defs>
       <path d="
M52.3906 15.9219
L43.8906 15.9219
L43.8906 0
L35.8906 0
L35.8906 15.9219
L5.90625 15.9219
L5.90625 22.0156
L33.1094 68.8906
L43.8906 68.8906
L43.8906 22.9062
L52.3906 22.9062
z

M35.8906 22.9062
L35.8906 60.9844
L14.0156 22.9062
z
" id="AndaleMono-34"/>
      </defs>
      <g style="fill:#555555;" transform="translate(367.5775 579.8890625)scale(0.1 -0.1)">
       <use xlink:href="#AndaleMono-30"/>
       <use x="60.009765625" xlink:href="#AndaleMono-2e"/>
       <use x="120.01953125" xlink:href="#AndaleMono-34"/>
      </g>
     </g>
    </g>
    <g id="xtick_4">
     <g id="line2d_10">
      <path clip-path="url(#p82c8045bb0)" d="
M509.76 567
L509.76 64.8" style="fill:none;stroke:#000000;stroke-dasharray:1.000000,3.000000;stroke-dashoffset:0.0;stroke-width:0.5;"/>
     </g>
     <g id="line2d_11">
      <g>
       <use style="fill:#555555;stroke:#555555;stroke-width:0.5;" x="509.76" xlink:href="#m8bc147ca23" y="567.0"/>
      </g>
     </g>
     <g id="line2d_12">
      <g>
       <use style="fill:#555555;stroke:#555555;stroke-width:0.5;" x="509.76" xlink:href="#m8bc147ca23" y="64.8"/>
      </g>
     </g>
     <g id="text_4">
      <!-- 0.6 -->
      <defs>
       <path d="
M17.6719 35.8906
Q24.125 41.1094 31.6875 41.1094
Q40.4375 41.1094 46.2656 35.5156
Q52.0938 29.9375 52.0938 21.0938
Q52.0938 11.375 46.9219 5.03125
Q41.75 -1.3125 33.1094 -1.3125
Q22.0781 -1.3125 15.625 8.8125
Q9.1875 18.9531 9.1875 33.5938
Q9.1875 49.2188 15.8906 59.7188
Q22.6094 70.2188 34.2812 70.2188
Q42.3281 70.2188 48.1875 67.8281
L46.9219 60.6875
Q40.1406 63.1875 34.5156 63.1875
Q26.5625 63.1875 22.1094 55.5625
Q17.6719 47.9531 17.6719 35.8906
M17.9219 29
Q17.9219 20.1719 22.0625 12.9375
Q26.2188 5.71875 32.5156 5.71875
Q37.8438 5.71875 40.7188 9.625
Q43.6094 13.5312 43.6094 20.4062
Q43.6094 26.7656 40.4219 30.4219
Q37.25 34.0781 31.5 34.0781
Q24.0312 34.0781 17.9219 29" id="AndaleMono-36"/>
      </defs>
      <g style="fill:#555555;" transform="translate(501.51234375 579.8890625)scale(0.1 -0.1)">
       <use xlink:href="#AndaleMono-30"/>
       <use x="60.009765625" xlink:href="#AndaleMono-2e"/>
       <use x="120.01953125" xlink:href="#AndaleMono-36"/>
      </g>
     </g>
    </g>
    <g id="xtick_5">
     <g id="line2d_13">
      <path clip-path="url(#p82c8045bb0)" d="
M643.68 567
L643.68 64.8" style="fill:none;stroke:#000000;stroke-dasharray:1.000000,3.000000;stroke-dashoffset:0.0;stroke-width:0.5;"/>
     </g>
     <g id="line2d_14">
      <g>
       <use style="fill:#555555;stroke:#555555;stroke-width:0.5;" x="643.68" xlink:href="#m8bc147ca23" y="567.0"/>
      </g>
     </g>
     <g id="line2d_15">
      <g>
       <use style="fill:#555555;stroke:#555555;stroke-width:0.5;" x="643.68" xlink:href="#m8bc147ca23" y="64.8"/>
      </g>
     </g>
     <g id="text_5">
      <!-- 0.8 -->
      <defs>
       <path d="
M36.9219 37.7969
Q43.9531 35.75 47.8281 30.8125
Q51.7031 25.875 51.7031 19.2812
Q51.7031 9.8125 45.4219 4.25
Q39.1562 -1.3125 29.9844 -1.3125
Q20.3594 -1.3125 14.1875 4.29688
Q8.01562 9.90625 8.01562 19.1875
Q8.01562 25.7344 12.0156 30.7031
Q16.0156 35.6875 23.1875 37.7969
Q17.4844 39.2656 14.0312 43.4375
Q10.5938 47.6094 10.5938 52.7812
Q10.5938 59.4219 15.8594 64.8125
Q21.1406 70.2188 29.7812 70.2188
Q38.3281 70.2188 43.9219 64.8438
Q49.5156 59.4688 49.5156 52.7812
Q49.5156 47.75 46 43.5312
Q42.4844 39.3125 36.9219 37.7969
M29.7812 41.1094
Q30.0312 41.1094 32.125 41.6875
Q34.2344 42.2812 35.7188 43.1406
Q37.2031 44 38.4688 45.3125
Q39.75 46.625 40.5312 48.4062
Q41.3125 50.2031 41.3125 52.3906
Q41.3125 57.0781 37.9375 60.1719
Q34.5781 63.2812 29.7812 63.2812
Q25.1406 63.2812 21.8125 60.1094
Q18.5 56.9375 18.5 52.3906
Q18.5 49.5156 19.7031 47.3594
Q20.9062 45.2188 22.6875 43.8906
Q24.4688 42.5781 26.7812 41.8438
Q29.1094 41.1094 29.7812 41.1094
M29.7812 34.2812
Q16.4062 30.375 16.4062 19.5781
Q16.4062 13.2812 20.4531 9.5
Q24.5156 5.71875 29.9844 5.71875
Q35.6406 5.71875 39.5156 9.45312
Q43.4062 13.1875 43.4062 19.5781
Q43.4062 24.4219 40.7188 28.25
Q38.0312 32.0781 29.7812 34.2812" id="AndaleMono-38"/>
      </defs>
      <g style="fill:#555555;" transform="translate(635.451875 579.8890625)scale(0.1 -0.1)">
       <use xlink:href="#AndaleMono-30"/>
       <use x="60.009765625" xlink:href="#AndaleMono-2e"/>
       <use x="120.01953125" xlink:href="#AndaleMono-38"/>
      </g>
     </g>
    </g>
    <g id="xtick_6">
     <g id="line2d_16">
      <path clip-path="url(#p82c8045bb0)" d="
M777.6 567
L777.6 64.8" style="fill:none;stroke:#000000;stroke-dasharray:1.000000,3.000000;stroke-dashoffset:0.0;stroke-width:0.5;"/>
     </g>
     <g id="line2d_17">
      <g>
       <use style="fill:#555555;stroke:#555555;stroke-width:0.5;" x="777.6" xlink:href="#m8bc147ca23" y="567.0"/>
      </g>
     </g>
     <g id="line2d_18">
      <g>
       <use style="fill:#555555;stroke:#555555;stroke-width:0.5;" x="777.6" xlink:href="#m8bc147ca23" y="64.8"/>
      </g>
     </g>
     <g id="text_6">
      <!-- 1.0 -->
      <defs>
       <path d="
M49.7031 0
L13.4844 0
L13.4844 6.98438
L28.0781 6.98438
L28.0781 60.5
L14.3125 53.6094
L14.3125 61.625
L29.2031 69.2812
L36.0781 69.2812
L36.0781 6.98438
L49.7031 6.98438
z
" id="AndaleMono-31"/>
      </defs>
      <g style="fill:#555555;" transform="translate(769.64296875 579.8890625)scale(0.1 -0.1)">
       <use xlink:href="#AndaleMono-31"/>
       <use x="60.009765625" xlink:href="#AndaleMono-2e"/>
       <use x="120.01953125" xlink:href="#AndaleMono-30"/>
      </g>
     </g>
    </g>
    <g id="text_7">
     <!-- $D_f$ -->
     <defs>
      <path d="
M4.89062 0
Q3.90625 0 3.90625 1.3125
Q3.95312 1.5625 4.09375 2.17188
Q4.25 2.78125 4.51562 3.14062
Q4.78125 3.51562 5.17188 3.51562
Q11.2812 3.51562 13.7188 4.20312
Q14.9844 4.64062 15.5781 6.89062
L29.2969 61.8125
Q29.5 62.7969 29.5 63.1875
Q29.5 64.2656 28.3281 64.4062
Q26.4219 64.7969 21.0938 64.7969
Q20.125 64.7969 20.125 66.1094
Q20.1719 66.3594 20.3125 66.9688
Q20.4531 67.5781 20.7188 67.9375
Q21 68.3125 21.3906 68.3125
L57.3281 68.3125
Q64.3125 68.3125 69.5312 64.9219
Q74.75 61.5312 77.5312 55.7812
Q80.3281 50.0469 80.3281 43.1094
Q80.3281 35.4531 77.1406 27.7812
Q73.9688 20.125 68.25 13.7656
Q62.5469 7.42188 55.2188 3.70312
Q47.9062 0 40.1875 0
z

M23.5781 4.29688
Q23.5781 3.51562 27 3.51562
L38.625 3.51562
Q44.1875 3.51562 49.3594 5.8125
Q54.5469 8.10938 58.5938 12.1094
Q62.3594 15.875 65.2344 21.9688
Q68.1094 28.0781 69.7031 34.7188
Q71.2969 41.3594 71.2969 46.9219
Q71.2969 50.9844 70.0938 54.25
Q68.8906 57.5156 66.7188 59.8594
Q64.5469 62.2031 61.2812 63.5
Q58.0156 64.7969 53.9062 64.7969
L42.9219 64.7969
Q40.1875 64.7969 39.2969 64.3281
Q38.4219 63.875 37.7031 61.375
L24.0312 6.5
Q23.5781 5.28125 23.5781 4.29688" id="Cmmi10-44"/>
      <path d="
M9.71875 -16.5
Q11.5781 -17.9219 14.2031 -17.9219
Q17.7812 -17.9219 20.0156 -10.0156
Q20.9531 -6.20312 25.0938 15.0938
L29.6875 39.5938
L21.0938 39.5938
Q20.125 39.5938 20.125 40.9219
Q20.5156 43.1094 21.3906 43.1094
L30.3281 43.1094
L31.5 49.6094
Q32.0781 52.6406 32.5625 54.8125
Q33.0625 56.9844 33.625 58.8281
Q34.1875 60.6875 35.2969 62.9844
Q37.0156 66.2656 39.9219 68.3906
Q42.8281 70.5156 46.1875 70.5156
Q48.3906 70.5156 50.4688 69.7031
Q52.5469 68.8906 53.8594 67.2812
Q55.1719 65.6719 55.1719 63.4844
Q55.1719 60.9375 53.4844 59.0469
Q51.8125 57.1719 49.4219 57.1719
Q47.7969 57.1719 46.6562 58.1719
Q45.5156 59.1875 45.5156 60.7969
Q45.5156 62.9844 47 64.625
Q48.4844 66.2656 50.6875 66.5
Q48.8281 67.9219 46.0938 67.9219
Q44.5781 67.9219 43.2344 66.5
Q41.8906 65.0938 41.5 63.4844
Q40.875 60.9375 38.7188 49.7031
L37.5 43.1094
L47.7969 43.1094
Q48.7812 43.1094 48.7812 41.7969
Q48.7344 41.5469 48.5781 40.9375
Q48.4375 40.3281 48.1719 39.9531
Q47.9062 39.5938 47.5156 39.5938
L36.8125 39.5938
L32.1719 15.1875
Q31.2969 9.85938 30.1406 4.35938
Q29 -1.125 26.9219 -6.90625
Q24.8594 -12.7031 21.625 -16.6094
Q18.4062 -20.5156 14.0156 -20.5156
Q10.6406 -20.5156 7.98438 -18.5781
Q5.32812 -16.6562 5.32812 -13.4844
Q5.32812 -10.9375 6.95312 -9.04688
Q8.59375 -7.17188 11.0781 -7.17188
Q12.75 -7.17188 13.8594 -8.17188
Q14.9844 -9.1875 14.9844 -10.7969
Q14.9844 -12.9375 13.3906 -14.7188
Q11.8125 -16.5 9.71875 -16.5" id="Cmmi10-66"/>
     </defs>
     <g style="fill:#555555;" transform="translate(434.88 595.1815625)scale(0.12 -0.12)">
      <use transform="translate(0.0 0.6875)" xlink:href="#Cmmi10-44"/>
      <use transform="translate(82.71484375 -24.821875)scale(0.7)" xlink:href="#Cmmi10-66"/>
     </g>
    </g>
   </g>
   <g id="matplotlib.axis_2">
    <g id="ytick_1">
     <g id="line2d_19">
      <path clip-path="url(#p82c8045bb0)" d="
M108 567
L777.6 567" style="fill:none;stroke:#000000;stroke-dasharray:1.000000,3.000000;stroke-dashoffset:0.0;stroke-width:0.5;"/>
     </g>
     <g id="line2d_20">
      <g>
       <use style="fill:#555555;stroke:#555555;stroke-width:0.5;" x="108.0" xlink:href="#m8bc147ca23" y="567.0"/>
      </g>
     </g>
     <g id="line2d_21">
      <g>
       <use style="fill:#555555;stroke:#555555;stroke-width:0.5;" x="777.6" xlink:href="#m8bc147ca23" y="567.0"/>
      </g>
     </g>
     <g id="text_8">
      <!-- 0.0 -->
      <g style="fill:#555555;" transform="translate(85.4546875 569.43828125)scale(0.1 -0.1)">
       <use xlink:href="#AndaleMono-30"/>
       <use x="60.009765625" xlink:href="#AndaleMono-2e"/>
       <use x="120.01953125" xlink:href="#AndaleMono-30"/>
      </g>
     </g>
    </g>
    <g id="ytick_2">
     <g id="line2d_22">
      <path clip-path="url(#p82c8045bb0)" d="
M108 466.56
L777.6 466.56" style="fill:none;stroke:#000000;stroke-dasharray:1.000000,3.000000;stroke-dashoffset:0.0;stroke-width:0.5;"/>
     </g>
     <g id="line2d_23">
      <g>
       <use style="fill:#555555;stroke:#555555;stroke-width:0.5;" x="108.0" xlink:href="#m8bc147ca23" y="466.56"/>
      </g>
     </g>
     <g id="line2d_24">
      <g>
       <use style="fill:#555555;stroke:#555555;stroke-width:0.5;" x="777.6" xlink:href="#m8bc147ca23" y="466.56"/>
      </g>
     </g>
     <g id="text_9">
      <!-- 0.2 -->
      <g style="fill:#555555;" transform="translate(85.9234375 468.99828125)scale(0.1 -0.1)">
       <use xlink:href="#AndaleMono-30"/>
       <use x="60.009765625" xlink:href="#AndaleMono-2e"/>
       <use x="120.01953125" xlink:href="#AndaleMono-32"/>
      </g>
     </g>
    </g>
    <g id="ytick_3">
     <g id="line2d_25">
      <path clip-path="url(#p82c8045bb0)" d="
M108 366.12
L777.6 366.12" style="fill:none;stroke:#000000;stroke-dasharray:1.000000,3.000000;stroke-dashoffset:0.0;stroke-width:0.5;"/>
     </g>
     <g id="line2d_26">
      <g>
       <use style="fill:#555555;stroke:#555555;stroke-width:0.5;" x="108.0" xlink:href="#m8bc147ca23" y="366.12"/>
      </g>
     </g>
     <g id="line2d_27">
      <g>
       <use style="fill:#555555;stroke:#555555;stroke-width:0.5;" x="777.6" xlink:href="#m8bc147ca23" y="366.12"/>
      </g>
     </g>
     <g id="text_10">
      <!-- 0.4 -->
      <g style="fill:#555555;" transform="translate(85.475 368.55828125)scale(0.1 -0.1)">
       <use xlink:href="#AndaleMono-30"/>
       <use x="60.009765625" xlink:href="#AndaleMono-2e"/>
       <use x="120.01953125" xlink:href="#AndaleMono-34"/>
      </g>
     </g>
    </g>
    <g id="ytick_4">
     <g id="line2d_28">
      <path clip-path="url(#p82c8045bb0)" d="
M108 265.68
L777.6 265.68" style="fill:none;stroke:#000000;stroke-dasharray:1.000000,3.000000;stroke-dashoffset:0.0;stroke-width:0.5;"/>
     </g>
     <g id="line2d_29">
      <g>
       <use style="fill:#555555;stroke:#555555;stroke-width:0.5;" x="108.0" xlink:href="#m8bc147ca23" y="265.68"/>
      </g>
     </g>
     <g id="line2d_30">
      <g>
       <use style="fill:#555555;stroke:#555555;stroke-width:0.5;" x="777.6" xlink:href="#m8bc147ca23" y="265.68"/>
      </g>
     </g>
     <g id="text_11">
      <!-- 0.6 -->
      <g style="fill:#555555;" transform="translate(85.5046875 268.11828125)scale(0.1 -0.1)">
       <use xlink:href="#AndaleMono-30"/>
       <use x="60.009765625" xlink:href="#AndaleMono-2e"/>
       <use x="120.01953125" xlink:href="#AndaleMono-36"/>
      </g>
     </g>
    </g>
    <g id="ytick_5">
     <g id="line2d_31">
      <path clip-path="url(#p82c8045bb0)" d="
M108 165.24
L777.6 165.24" style="fill:none;stroke:#000000;stroke-dasharray:1.000000,3.000000;stroke-dashoffset:0.0;stroke-width:0.5;"/>
     </g>
     <g id="line2d_32">
      <g>
       <use style="fill:#555555;stroke:#555555;stroke-width:0.5;" x="108.0" xlink:href="#m8bc147ca23" y="165.24"/>
      </g>
     </g>
     <g id="line2d_33">
      <g>
       <use style="fill:#555555;stroke:#555555;stroke-width:0.5;" x="777.6" xlink:href="#m8bc147ca23" y="165.24"/>
      </g>
     </g>
     <g id="text_12">
      <!-- 0.8 -->
      <g style="fill:#555555;" transform="translate(85.54375 167.67828125)scale(0.1 -0.1)">
       <use xlink:href="#AndaleMono-30"/>
       <use x="60.009765625" xlink:href="#AndaleMono-2e"/>
       <use x="120.01953125" xlink:href="#AndaleMono-38"/>
      </g>
     </g>
    </g>
    <g id="ytick_6">
     <g id="line2d_34">
      <path clip-path="url(#p82c8045bb0)" d="
M108 64.8
L777.6 64.8" style="fill:none;stroke:#000000;stroke-dasharray:1.000000,3.000000;stroke-dashoffset:0.0;stroke-width:0.5;"/>
     </g>
     <g id="line2d_35">
      <g>
       <use style="fill:#555555;stroke:#555555;stroke-width:0.5;" x="108.0" xlink:href="#m8bc147ca23" y="64.8"/>
      </g>
     </g>
     <g id="line2d_36">
      <g>
       <use style="fill:#555555;stroke:#555555;stroke-width:0.5;" x="777.6" xlink:href="#m8bc147ca23" y="64.8"/>
      </g>
     </g>
     <g id="text_13">
      <!-- 1.0 -->
      <g style="fill:#555555;" transform="translate(86.0859375 67.23828125)scale(0.1 -0.1)">
       <use xlink:href="#AndaleMono-31"/>
       <use x="60.009765625" xlink:href="#AndaleMono-2e"/>
       <use x="120.01953125" xlink:href="#AndaleMono-30"/>
      </g>
     </g>
    </g>
    <g id="text_14">
     <!-- $(n-1)/n$ -->
     <defs>
      <path d="
M9.28125 0
L9.28125 3.51562
Q21.7812 3.51562 21.7812 6.6875
L21.7812 59.1875
Q16.6094 56.6875 8.6875 56.6875
L8.6875 60.2031
Q20.9531 60.2031 27.2031 66.6094
L28.6094 66.6094
Q28.9531 66.6094 29.2656 66.3281
Q29.5938 66.0625 29.5938 65.7188
L29.5938 6.6875
Q29.5938 3.51562 42.0938 3.51562
L42.0938 0
z
" id="Cmr10-31"/>
      <path d="
M10.2031 23
Q9.375 23 8.82812 23.625
Q8.29688 24.2656 8.29688 25
Q8.29688 25.7344 8.82812 26.3594
Q9.375 27 10.2031 27
L67.5781 27
Q68.3594 27 68.875 26.3594
Q69.3906 25.7344 69.3906 25
Q69.3906 24.2656 68.875 23.625
Q68.3594 23 67.5781 23
z
" id="Cmsy10-a1"/>
      <path d="
M7.71875 1.70312
Q7.71875 2.29688 7.8125 2.59375
L15.2812 32.4219
Q16.0156 35.2031 16.0156 37.3125
Q16.0156 41.6094 13.0938 41.6094
Q9.96875 41.6094 8.45312 37.8594
Q6.9375 34.125 5.51562 28.4219
Q5.51562 28.125 5.21875 27.9531
Q4.9375 27.7812 4.6875 27.7812
L3.51562 27.7812
Q3.17188 27.7812 2.92188 28.1406
Q2.6875 28.5156 2.6875 28.8125
Q3.76562 33.1562 4.76562 36.1719
Q5.76562 39.2031 7.89062 41.6875
Q10.0156 44.1875 13.1875 44.1875
Q16.9375 44.1875 19.8125 41.8125
Q22.7031 39.4531 22.7031 35.7969
Q25.6875 39.7031 29.6875 41.9375
Q33.6875 44.1875 38.1875 44.1875
Q41.75 44.1875 44.3281 42.9688
Q46.9219 41.75 48.3594 39.2812
Q49.8125 36.8125 49.8125 33.4062
Q49.8125 29.2969 47.9688 23.4844
Q46.1406 17.6719 43.4062 10.5
Q42 7.23438 42 4.5
Q42 1.51562 44.2812 1.51562
Q48.1875 1.51562 50.7969 5.70312
Q53.4219 9.90625 54.5 14.7031
Q54.6875 15.2812 55.3281 15.2812
L56.5 15.2812
Q56.8906 15.2812 57.1562 15.0312
Q57.4219 14.7969 57.4219 14.4062
Q57.4219 14.3125 57.3281 14.1094
Q55.9531 8.45312 52.5625 3.65625
Q49.1719 -1.125 44.0938 -1.125
Q40.5781 -1.125 38.0781 1.29688
Q35.5938 3.71875 35.5938 7.17188
Q35.5938 9.03125 36.375 11.0781
Q37.6406 14.3594 39.2812 18.8906
Q40.9219 23.4375 41.9688 27.5781
Q43.0156 31.7344 43.0156 34.9062
Q43.0156 37.7031 41.8594 39.6562
Q40.7188 41.6094 37.9844 41.6094
Q34.3281 41.6094 31.25 39.9844
Q28.1719 38.375 25.875 35.7188
Q23.5781 33.0625 21.6875 29.3906
L14.8906 2.20312
Q14.5469 0.828125 13.3438 -0.140625
Q12.1562 -1.125 10.6875 -1.125
Q9.46875 -1.125 8.59375 -0.34375
Q7.71875 0.4375 7.71875 1.70312" id="Cmmi10-6e"/>
      <path d="
M31 -24.8125
Q25.4375 -20.4062 21.4062 -14.7188
Q17.3906 -9.03125 14.8125 -2.57812
Q12.25 3.85938 10.9844 10.8906
Q9.71875 17.9219 9.71875 25
Q9.71875 32.1719 10.9844 39.2031
Q12.25 46.2344 14.8594 52.7344
Q17.4844 59.2344 21.5312 64.8906
Q25.5938 70.5625 31 74.8125
Q31 75 31.5 75
L32.4219 75
Q32.7188 75 32.9531 74.7344
Q33.2031 74.4688 33.2031 74.125
Q33.2031 73.6875 33.0156 73.4844
Q28.125 68.7031 24.875 63.2344
Q21.625 57.7656 19.6406 51.5781
Q17.6719 45.4062 16.7969 38.7812
Q15.9219 32.1719 15.9219 25
Q15.9219 -6.78125 32.9062 -23.2969
Q33.2031 -23.5781 33.2031 -24.125
Q33.2031 -24.3594 32.9375 -24.6719
Q32.6719 -25 32.4219 -25
L31.5 -25
Q31 -25 31 -24.8125" id="Cmr10-28"/>
      <path d="
M6.5 -25
Q5.60938 -25 5.60938 -24.125
Q5.60938 -23.6875 5.8125 -23.4844
Q22.9062 -6.78125 22.9062 25
Q22.9062 56.7812 6 73.2969
Q5.60938 73.5312 5.60938 74.125
Q5.60938 74.4688 5.875 74.7344
Q6.15625 75 6.5 75
L7.42188 75
Q7.71875 75 7.90625 74.8125
Q15.0938 69.1406 19.875 61.0312
Q24.6562 52.9375 26.875 43.75
Q29.1094 34.5781 29.1094 25
Q29.1094 17.9219 27.9062 11.0625
Q26.7031 4.20312 24.0938 -2.45312
Q21.4844 -9.125 17.4844 -14.7656
Q13.4844 -20.4062 7.90625 -24.8125
Q7.71875 -25 7.42188 -25
z
" id="Cmr10-29"/>
      <path d="
M5.60938 -23
Q5.60938 -22.7031 5.71875 -22.6094
L40.4844 73.7812
Q40.6719 74.3594 41.1562 74.6719
Q41.6562 75 42.2812 75
Q43.1719 75 43.7188 74.4531
Q44.2812 73.9219 44.2812 73
L44.2812 72.6094
L9.51562 -23.7812
Q8.9375 -25 7.625 -25
Q6.78125 -25 6.1875 -24.4062
Q5.60938 -23.8281 5.60938 -23" id="Cmmi10-3d"/>
     </defs>
     <g style="fill:#555555;" transform="translate(77.4546875 338.46)rotate(-90.0)scale(0.12 -0.12)">
      <use xlink:href="#Cmr10-28"/>
      <use transform="translate(38.818359375 0.0)" xlink:href="#Cmmi10-6e"/>
      <use transform="translate(98.828125 0.0)" xlink:href="#Cmsy10-a1"/>
      <use transform="translate(176.513671875 0.0)" xlink:href="#Cmr10-31"/>
      <use transform="translate(226.513671875 0.0)" xlink:href="#Cmr10-29"/>
      <use transform="translate(265.33203125 0.0)" xlink:href="#Cmmi10-3d"/>
      <use transform="translate(315.33203125 0.0)" xlink:href="#Cmmi10-6e"/>
     </g>
    </g>
   </g>
   <g id="PathCollection_1">
    <defs>
     <path d="
M0 2.23607
C0.593012 2.23607 1.16182 2.00046 1.58114 1.58114
C2.00046 1.16182 2.23607 0.593012 2.23607 0
C2.23607 -0.593012 2.00046 -1.16182 1.58114 -1.58114
C1.16182 -2.00046 0.593012 -2.23607 0 -2.23607
C-0.593012 -2.23607 -1.16182 -2.00046 -1.58114 -1.58114
C-2.00046 -1.16182 -2.23607 -0.593012 -2.23607 0
C-2.23607 0.593012 -2.00046 1.16182 -1.58114 1.58114
C-1.16182 2.00046 -0.593012 2.23607 0 2.23607
z
" id="C0_0_919e3f95db"/>
    </defs>
    <g clip-path="url(#p82c8045bb0)">
     <use style="fill:#0000ff;stroke:#eeeeee;stroke-width:0.5;" x="108.002007461" xlink:href="#C0_0_919e3f95db" y="65.3022"/>
    </g>
    <g clip-path="url(#p82c8045bb0)">
     <use style="fill:#0000ff;stroke:#eeeeee;stroke-width:0.5;" x="108.1995408" xlink:href="#C0_0_919e3f95db" y="69.822"/>
    </g>
    <g clip-path="url(#p82c8045bb0)">
     <use style="fill:#0000ff;stroke:#eeeeee;stroke-width:0.5;" x="126.7488" xlink:href="#C0_0_919e3f95db" y="115.02"/>
    </g>
    <g clip-path="url(#p82c8045bb0)">
     <use style="fill:#0000ff;stroke:#eeeeee;stroke-width:0.5;" x="127.493408359" xlink:href="#C0_0_919e3f95db" y="116.044897959"/>
    </g>
    <g clip-path="url(#p82c8045bb0)">
     <use style="fill:#0000ff;stroke:#eeeeee;stroke-width:0.5;" x="128.283203125" xlink:href="#C0_0_919e3f95db" y="117.1125"/>
    </g>
    <g clip-path="url(#p82c8045bb0)">
     <use style="fill:#0000ff;stroke:#eeeeee;stroke-width:0.5;" x="129.121909404" xlink:href="#C0_0_919e3f95db" y="118.225531915"/>
    </g>
    <g clip-path="url(#p82c8045bb0)">
     <use style="fill:#0000ff;stroke:#eeeeee;stroke-width:0.5;" x="130.013643462" xlink:href="#C0_0_919e3f95db" y="119.386956522"/>
    </g>
    <g clip-path="url(#p82c8045bb0)">
     <use style="fill:#0000ff;stroke:#eeeeee;stroke-width:0.5;" x="130.962962963" xlink:href="#C0_0_919e3f95db" y="120.6"/>
    </g>
    <g clip-path="url(#p82c8045bb0)">
     <use style="fill:#0000ff;stroke:#eeeeee;stroke-width:0.5;" x="131.974924869" xlink:href="#C0_0_919e3f95db" y="121.868181818"/>
    </g>
    <g clip-path="url(#p82c8045bb0)">
     <use style="fill:#0000ff;stroke:#eeeeee;stroke-width:0.5;" x="133.055152377" xlink:href="#C0_0_919e3f95db" y="123.195348837"/>
    </g>
    <g clip-path="url(#p82c8045bb0)">
     <use style="fill:#0000ff;stroke:#eeeeee;stroke-width:0.5;" x="134.209912536" xlink:href="#C0_0_919e3f95db" y="124.585714286"/>
    </g>
    <g clip-path="url(#p82c8045bb0)">
     <use style="fill:#0000ff;stroke:#eeeeee;stroke-width:0.5;" x="135.446206526" xlink:href="#C0_0_919e3f95db" y="126.043902439"/>
    </g>
    <g clip-path="url(#p82c8045bb0)">
     <use style="fill:#0000ff;stroke:#eeeeee;stroke-width:0.5;" x="136.771875" xlink:href="#C0_0_919e3f95db" y="127.575"/>
    </g>
    <g clip-path="url(#p82c8045bb0)">
     <use style="fill:#0000ff;stroke:#eeeeee;stroke-width:0.5;" x="138.195721438" xlink:href="#C0_0_919e3f95db" y="129.184615385"/>
    </g>
    <g clip-path="url(#p82c8045bb0)">
     <use style="fill:#0000ff;stroke:#eeeeee;stroke-width:0.5;" x="139.727657093" xlink:href="#C0_0_919e3f95db" y="130.878947368"/>
    </g>
    <g clip-path="url(#p82c8045bb0)">
     <use style="fill:#0000ff;stroke:#eeeeee;stroke-width:0.5;" x="141.378871933" xlink:href="#C0_0_919e3f95db" y="132.664864865"/>
    </g>
    <g clip-path="url(#p82c8045bb0)">
     <use style="fill:#0000ff;stroke:#eeeeee;stroke-width:0.5;" x="143.162037037" xlink:href="#C0_0_919e3f95db" y="134.55"/>
    </g>
    <g clip-path="url(#p82c8045bb0)">
     <use style="fill:#0000ff;stroke:#eeeeee;stroke-width:0.5;" x="145.09154519" xlink:href="#C0_0_919e3f95db" y="136.542857143"/>
    </g>
    <g clip-path="url(#p82c8045bb0)">
     <use style="fill:#0000ff;stroke:#eeeeee;stroke-width:0.5;" x="147.183798087" xlink:href="#C0_0_919e3f95db" y="138.652941176"/>
    </g>
    <g clip-path="url(#p82c8045bb0)">
     <use style="fill:#0000ff;stroke:#eeeeee;stroke-width:0.5;" x="149.457550714" xlink:href="#C0_0_919e3f95db" y="140.890909091"/>
    </g>
    <g clip-path="url(#p82c8045bb0)">
     <use style="fill:#0000ff;stroke:#eeeeee;stroke-width:0.5;" x="151.934326172" xlink:href="#C0_0_919e3f95db" y="143.26875"/>
    </g>
    <g clip-path="url(#p82c8045bb0)">
     <use style="fill:#0000ff;stroke:#eeeeee;stroke-width:0.5;" x="154.638917794" xlink:href="#C0_0_919e3f95db" y="145.8"/>
    </g>
    <g clip-path="url(#p82c8045bb0)">
     <use style="fill:#0000ff;stroke:#eeeeee;stroke-width:0.5;" x="157.6" xlink:href="#C0_0_919e3f95db" y="148.5"/>
    </g>
    <g clip-path="url(#p82c8045bb0)">
     <use style="fill:#0000ff;stroke:#eeeeee;stroke-width:0.5;" x="160.850875395" xlink:href="#C0_0_919e3f95db" y="151.386206897"/>
    </g>
    <g clip-path="url(#p82c8045bb0)">
     <use style="fill:#0000ff;stroke:#eeeeee;stroke-width:0.5;" x="164.430393586" xlink:href="#C0_0_919e3f95db" y="154.478571429"/>
    </g>
    <g clip-path="url(#p82c8045bb0)">
     <use style="fill:#0000ff;stroke:#eeeeee;stroke-width:0.5;" x="168.384087791" xlink:href="#C0_0_919e3f95db" y="157.8"/>
    </g>
    <g clip-path="url(#p82c8045bb0)">
     <use style="fill:#0000ff;stroke:#eeeeee;stroke-width:0.5;" x="172.76558944" xlink:href="#C0_0_919e3f95db" y="161.376923077"/>
    </g>
    <g clip-path="url(#p82c8045bb0)">
     <use style="fill:#0000ff;stroke:#eeeeee;stroke-width:0.5;" x="177.6384" xlink:href="#C0_0_919e3f95db" y="165.24"/>
    </g>
    <g clip-path="url(#p82c8045bb0)">
     <use style="fill:#0000ff;stroke:#eeeeee;stroke-width:0.5;" x="183.078125" xlink:href="#C0_0_919e3f95db" y="169.425"/>
    </g>
    <g clip-path="url(#p82c8045bb0)">
     <use style="fill:#0000ff;stroke:#eeeeee;stroke-width:0.5;" x="189.175310265" xlink:href="#C0_0_919e3f95db" y="173.973913043"/>
    </g>
    <g clip-path="url(#p82c8045bb0)">
     <use style="fill:#0000ff;stroke:#eeeeee;stroke-width:0.5;" x="196.03906837" xlink:href="#C0_0_919e3f95db" y="178.936363636"/>
    </g>
    <g clip-path="url(#p82c8045bb0)">
     <use style="fill:#0000ff;stroke:#eeeeee;stroke-width:0.5;" x="203.801749271" xlink:href="#C0_0_919e3f95db" y="184.371428571"/>
    </g>
    <g clip-path="url(#p82c8045bb0)">
     <use style="fill:#0000ff;stroke:#eeeeee;stroke-width:0.5;" x="212.625" xlink:href="#C0_0_919e3f95db" y="190.35"/>
    </g>
    <g clip-path="url(#p82c8045bb0)">
     <use style="fill:#0000ff;stroke:#eeeeee;stroke-width:0.5;" x="222.707683336" xlink:href="#C0_0_919e3f95db" y="196.957894737"/>
    </g>
    <g clip-path="url(#p82c8045bb0)">
     <use style="fill:#0000ff;stroke:#eeeeee;stroke-width:0.5;" x="234.296296296" xlink:href="#C0_0_919e3f95db" y="204.3"/>
    </g>
    <g clip-path="url(#p82c8045bb0)">
     <use style="fill:#0000ff;stroke:#eeeeee;stroke-width:0.5;" x="247.698758396" xlink:href="#C0_0_919e3f95db" y="212.505882353"/>
    </g>
    <g clip-path="url(#p82c8045bb0)">
     <use style="fill:#0000ff;stroke:#eeeeee;stroke-width:0.5;" x="263.302734375" xlink:href="#C0_0_919e3f95db" y="221.7375"/>
    </g>
    <g clip-path="url(#p82c8045bb0)">
     <use style="fill:#0000ff;stroke:#eeeeee;stroke-width:0.5;" x="281.6" xlink:href="#C0_0_919e3f95db" y="232.2"/>
    </g>
    <g clip-path="url(#p82c8045bb0)">
     <use style="fill:#0000ff;stroke:#eeeeee;stroke-width:0.5;" x="303.218658892" xlink:href="#C0_0_919e3f95db" y="244.157142857"/>
    </g>
    <g clip-path="url(#p82c8045bb0)">
     <use style="fill:#0000ff;stroke:#eeeeee;stroke-width:0.5;" x="328.964952208" xlink:href="#C0_0_919e3f95db" y="257.953846154"/>
    </g>
    <g clip-path="url(#p82c8045bb0)">
     <use style="fill:#0000ff;stroke:#eeeeee;stroke-width:0.5;" x="359.875" xlink:href="#C0_0_919e3f95db" y="274.05"/>
    </g>
    <g clip-path="url(#p82c8045bb0)">
     <use style="fill:#0000ff;stroke:#eeeeee;stroke-width:0.5;" x="397.271224643" xlink:href="#C0_0_919e3f95db" y="293.072727273"/>
    </g>
    <g clip-path="url(#p82c8045bb0)">
     <use style="fill:#0000ff;stroke:#eeeeee;stroke-width:0.5;" x="442.8" xlink:href="#C0_0_919e3f95db" y="315.9"/>
    </g>
    <g clip-path="url(#p82c8045bb0)">
     <use style="fill:#0000ff;stroke:#eeeeee;stroke-width:0.5;" x="498.37037037" xlink:href="#C0_0_919e3f95db" y="343.8"/>
    </g>
    <g clip-path="url(#p82c8045bb0)">
     <use style="fill:#0000ff;stroke:#eeeeee;stroke-width:0.5;" x="565.734375" xlink:href="#C0_0_919e3f95db" y="378.675"/>
    </g>
    <g clip-path="url(#p82c8045bb0)">
     <use style="fill:#0000ff;stroke:#eeeeee;stroke-width:0.5;" x="644.851311953" xlink:href="#C0_0_919e3f95db" y="423.514285714"/>
    </g>
    <g clip-path="url(#p82c8045bb0)">
     <use style="fill:#0000ff;stroke:#eeeeee;stroke-width:0.5;" x="728.0" xlink:href="#C0_0_919e3f95db" y="483.3"/>
    </g>
    <g clip-path="url(#p82c8045bb0)">
     <use style="fill:#0000ff;stroke:#eeeeee;stroke-width:0.5;" x="777.6" xlink:href="#C0_0_919e3f95db" y="567.0"/>
    </g>
   </g>
   <g id="line2d_37">
    <path clip-path="url(#p82c8045bb0)" d="
M234.296 206.129
L247.699 213.286
L263.303 221.619
L281.6 231.391
L303.219 242.936
L328.965 256.685
L359.875 273.192
L397.271 293.163
L442.8 317.476" style="fill:none;stroke:#ff0000;stroke-linecap:square;"/>
   </g>
   <g id="patch_3">
    <path d="
M108 64.8
L777.6 64.8" style="fill:none;stroke:#bcbcbc;"/>
   </g>
   <g id="patch_4">
    <path d="
M777.6 567
L777.6 64.8" style="fill:none;stroke:#bcbcbc;"/>
   </g>
   <g id="patch_5">
    <path d="
M108 567
L777.6 567" style="fill:none;stroke:#bcbcbc;"/>
   </g>
   <g id="patch_6">
    <path d="
M108 567
L108 64.8" style="fill:none;stroke:#bcbcbc;"/>
   </g>
   <g id="text_15">
    <!-- (n-1)/n=-0.712*Df+0.8529 -->
    <defs>
     <path d="
M50.2031 68.1094
L48.1875 61.9219
Q42.7812 63.4844 38.4844 63.4844
Q34.375 63.4844 32.8281 61.1562
Q31.2969 58.8438 31.2969 51.8125
L31.2969 50.875
L48.3906 50.875
L48.3906 44.2812
L31.2969 44.2812
L31.2969 0
L23.6875 0
L23.6875 44.2812
L10.8906 44.2812
L10.8906 50.875
L23.6875 50.875
L23.6875 52.5938
Q23.6875 62.3125 27 66.2188
Q30.3281 70.125 38.4844 70.125
Q43.75 70.125 50.2031 68.1094" id="AndaleMono-66"/>
     <path d="
M46.7812 -10.2031
L43.7969 -14.4062
Q32.9062 -6.15625 27.1875 4.78125
Q21.4844 15.7188 21.4844 27.875
Q21.4844 40.1406 27.1406 51
Q32.8125 61.8594 43.7969 70.125
L46.7812 65.9219
Q37.8438 57.9062 33.9062 49.1406
Q29.9844 40.375 29.9844 27.9844
Q29.9844 15.1406 34.0625 6.375
Q38.1406 -2.39062 46.7812 -10.2031" id="AndaleMono-28"/>
     <path d="
M16.2188 70.125
Q27.1562 61.8594 32.8125 51
Q38.4844 40.1406 38.4844 27.875
Q38.4844 15.7188 32.7812 4.78125
Q27.0938 -6.15625 16.2188 -14.4062
L13.1875 -10.2031
Q22.125 -2.29688 26.0469 6.60938
Q29.9844 15.5312 29.9844 27.9844
Q29.9844 40.8281 25.9219 49.4688
Q21.875 58.1094 13.1875 65.9219
z
" id="AndaleMono-29"/>
     <path d="
M21.1875 41.1094
Q24.5156 42 27.6875 42
Q37.4531 42 43.1094 36.0156
Q48.7812 30.0312 48.7812 21.0938
Q48.7812 11.7188 42.1875 5.20312
Q35.5938 -1.3125 26.125 -1.3125
Q17.0938 -1.3125 10.9844 1.70312
L12.5938 8.5
Q19.2344 5.71875 26.3125 5.71875
Q32.625 5.71875 36.5 9.76562
Q40.375 13.8125 40.375 21.0938
Q40.375 27.9844 36.7188 31.6875
Q33.0625 35.4062 27.2969 35.4062
Q23.0938 35.4062 19 33.7969
L14.2031 35.9844
L14.2031 68.8906
L45.7031 68.8906
L45.7031 61.9219
L21.1875 61.9219
z
" id="AndaleMono-35"/>
     <path d="
M53.0781 32.0781
L33.2969 32.0781
L33.2969 12.1094
L26.9062 12.1094
L26.9062 32.0781
L6.89062 32.0781
L6.89062 38.4844
L26.9062 38.4844
L26.9062 58.5
L33.2969 58.5
L33.2969 38.4844
L53.0781 38.4844
z
" id="AndaleMono-2b"/>
     <path d="
M50.5938 63.1875
L23.2969 0
L15.0938 0
L42 61.9219
L9.71875 61.9219
L9.71875 68.8906
L50.5938 68.8906
z
" id="AndaleMono-37"/>
     <path d="
M43.1094 33.1094
Q37.1562 27.875 29.1094 27.875
Q20.3594 27.875 14.5156 33.4688
Q8.6875 39.0625 8.6875 47.9062
Q8.6875 57.375 14.2812 63.8438
Q19.875 70.3125 28.7188 70.3125
Q39.5 70.3125 45.5469 60.4531
Q51.6094 50.5938 51.6094 35.4062
Q51.6094 20.2188 44.5 9.5
Q37.4062 -1.21875 25.4844 -1.21875
Q17.4844 -1.21875 11.625 1.21875
L12.8906 8.29688
Q19.625 5.8125 25.2969 5.8125
Q33.4062 5.8125 38.25 13.6719
Q43.1094 21.5312 43.1094 33.1094
M42.9219 39.9844
Q42.9219 49.2656 39.1562 56.2656
Q35.4062 63.2812 29.2969 63.2812
Q23.7812 63.2812 20.4844 59.2031
Q17.1875 55.125 17.1875 48.5781
Q17.1875 42.5781 20.5312 38.7344
Q23.875 34.9062 29.2969 34.9062
Q36.7656 34.9062 42.2812 39.5
z
" id="AndaleMono-39"/>
     <path d="
M49.7031 0
L42.0938 0
L42.0938 32.625
Q42.0938 39.4062 39.9219 42.4531
Q37.75 45.5156 33.1094 45.5156
Q26.125 45.5156 18.1094 36.8125
L18.1094 0
L10.5 0
L10.5 50.875
L18.1094 50.875
L18.1094 43.4062
Q26.3125 52.0938 35.4062 52.0938
Q49.7031 52.0938 49.7031 34.8125
z
" id="AndaleMono-6e"/>
     <path d="
M47.6094 70.2188
L17.6719 -1.3125
L10.5 -1.3125
L40.2812 70.2188
z
" id="AndaleMono-2f"/>
     <path d="
M53.0781 41.8906
L6.89062 41.8906
L6.89062 48.2969
L53.0781 48.2969
z

M53.0781 22.3125
L6.89062 22.3125
L6.89062 28.7188
L53.0781 28.7188
z
" id="AndaleMono-3d"/>
     <path d="
M44 23.7812
L14.9844 23.7812
L14.9844 31.2031
L44 31.2031
z
" id="AndaleMono-2d"/>
     <path d="
M10.2031 68.8906
L23.7812 68.8906
Q37.3125 68.8906 45.4531 59.6875
Q53.6094 50.4844 53.6094 34.4219
Q53.6094 18.0156 45.3281 9
Q37.0625 0 24.125 0
L10.2031 0
z

M18.2188 6.98438
L23.875 6.98438
Q33.6875 6.98438 39.4062 14.25
Q45.125 21.5312 45.125 34.4219
Q45.125 47.2188 39.375 54.5625
Q33.6406 61.9219 23.875 61.9219
L18.2188 61.9219
z
" id="AndaleMono-44"/>
     <path d="
M47.2188 41.8906
L44.2812 37.0156
L32.7188 44.6719
L32.7188 30.7188
L27.2969 30.7188
L27.2969 44.6719
L15.5781 36.9219
L12.7031 41.8906
L25 49.9062
L12.7031 57.9062
L15.5781 62.7969
L27.2969 54.9844
L27.2969 68.8906
L32.7188 68.8906
L32.7188 55.0781
L44.2812 62.7969
L47.2188 57.9062
L35.1094 49.9062
z
" id="AndaleMono-2a"/>
    </defs>
    <g transform="translate(241.92 155.196)scale(0.1 -0.1)">
     <use xlink:href="#AndaleMono-28"/>
     <use x="60.009765625" xlink:href="#AndaleMono-6e"/>
     <use x="120.01953125" xlink:href="#AndaleMono-2d"/>
     <use x="180.029296875" xlink:href="#AndaleMono-31"/>
     <use x="240.0390625" xlink:href="#AndaleMono-29"/>
     <use x="300.048828125" xlink:href="#AndaleMono-2f"/>
     <use x="360.05859375" xlink:href="#AndaleMono-6e"/>
     <use x="420.068359375" xlink:href="#AndaleMono-3d"/>
     <use x="480.078125" xlink:href="#AndaleMono-2d"/>
     <use x="540.087890625" xlink:href="#AndaleMono-30"/>
     <use x="600.09765625" xlink:href="#AndaleMono-2e"/>
     <use x="660.107421875" xlink:href="#AndaleMono-37"/>
     <use x="720.1171875" xlink:href="#AndaleMono-31"/>
     <use x="780.126953125" xlink:href="#AndaleMono-32"/>
     <use x="840.13671875" xlink:href="#AndaleMono-2a"/>
     <use x="900.146484375" xlink:href="#AndaleMono-44"/>
     <use x="960.15625" xlink:href="#AndaleMono-66"/>
     <use x="1020.16601562" xlink:href="#AndaleMono-2b"/>
     <use x="1080.17578125" xlink:href="#AndaleMono-30"/>
     <use x="1140.18554688" xlink:href="#AndaleMono-2e"/>
     <use x="1200.1953125" xlink:href="#AndaleMono-38"/>
     <use x="1260.20507812" xlink:href="#AndaleMono-35"/>
     <use x="1320.21484375" xlink:href="#AndaleMono-32"/>
     <use x="1380.22460938" xlink:href="#AndaleMono-39"/>
    </g>
   </g>
  </g>
 </g>
 <defs>
  <clipPath id="p82c8045bb0">
   <rect height="502.2" width="669.6" x="108.0" y="64.8"/>
  </clipPath>
 </defs>
</svg>
